<svg width="137" height="70" viewBox="0 0 137 70" fill="none" xmlns="http://www.w3.org/2000/svg">
<path d="M28.32 69.888C22.88 69.888 17.6 69.216 12.48 67.872C7.36 66.528 3.2 64.736 0 62.496L6.24 48.48C9.248 50.464 12.736 52.064 16.704 53.28C20.672 54.496 24.576 55.104 28.416 55.104C35.712 55.104 39.36 53.28 39.36 49.632C39.36 47.712 38.304 46.304 36.192 45.408C34.144 44.448 30.816 43.456 26.208 42.432C21.152 41.344 16.928 40.192 13.536 38.976C10.144 37.696 7.232 35.68 4.8 32.928C2.368 30.176 1.152 26.464 1.152 21.792C1.152 17.696 2.272 14.016 4.512 10.752C6.752 7.424 10.08 4.8 14.496 2.88C18.976 0.960004 24.448 0 30.912 0C35.328 0 39.68 0.512001 43.968 1.536C48.256 2.496 52.032 3.936 55.296 5.85599L49.44 19.968C43.04 16.512 36.832 14.784 30.816 14.784C27.04 14.784 24.288 15.36 22.56 16.512C20.832 17.6 19.968 19.04 19.968 20.832C19.968 22.624 20.992 23.968 23.04 24.864C25.088 25.76 28.384 26.688 32.928 27.648C38.048 28.736 42.272 29.92 45.6 31.2C48.992 32.416 51.904 34.4 54.336 37.152C56.832 39.84 58.08 43.52 58.08 48.192C58.08 52.224 56.96 55.872 54.72 59.136C52.48 62.4 49.12 65.024 44.64 67.008C40.16 68.928 34.72 69.888 28.32 69.888ZM111.884 55.488H83.4683L78.1883 68.544H58.7962L88.4603 1.344H107.18L136.94 68.544H117.164L111.884 55.488ZM106.316 41.472L97.6763 19.968L89.0363 41.472H106.316Z" fill="url(#paint0_linear)"/>
<defs>
<linearGradient id="paint0_linear" x1="11" y1="9.13642e-06" x2="126" y2="58" gradientUnits="userSpaceOnUse">
<stop stop-color="#171584"/>
<stop offset="0.662608" stop-color="#CD5521"/>
<stop offset="1" stop-color="#AF114A"/>
</linearGradient>
</defs>
</svg>
